<?xml version="1.0" encoding="UTF-8"?>
<!DOCTYPE svg PUBLIC "-//W3C//DTD SVG 1.1//EN" "http://www.w3.org/Graphics/SVG/1.1/DTD/svg11.dtd">
<!-- Creator: CorelDRAW 2021 (64-Bit) -->
<svg xmlns="http://www.w3.org/2000/svg" xml:space="preserve" width="14.1578in" height="2.88448in" version="1.1" style="shape-rendering:geometricPrecision; text-rendering:geometricPrecision; image-rendering:optimizeQuality; fill-rule:evenodd; clip-rule:evenodd"
viewBox="0 0 9029.02 1839.55"
 xmlns:xlink="http://www.w3.org/1999/xlink"
 xmlns:xodm="http://www.corel.com/coreldraw/odm/2003">
 <defs>
  <style type="text/css">
   <![CDATA[
    .fil0 {fill:#1A2950;fill-rule:nonzero}
    .fil1 {fill:#FF9F42;fill-rule:nonzero}
   ]]>
  </style>
 </defs>
 <g id="Layer_x0020_1">
  <metadata id="CorelCorpID_0Corel-Layer"/>
  <g id="_1898930250304">
   <path id="text-0" class="fil0" d="M5135.49 1479.13c-29.45,0 -56.28,-12.84 -80.48,-38.51 -24.36,-25.68 -36.54,-66.33 -36.54,-121.97 0,-55.63 5.01,-109.38 15.04,-161.25 9.87,-51.7 21.41,-101.51 34.63,-149.44 13.05,-47.93 24.6,-93.55 34.63,-136.86 9.87,-43.14 14.81,-83.96 14.81,-122.48 -11.94,-5.13 -23.09,-7.7 -33.43,-7.7 -14.33,0 -26.27,4.71 -35.82,14.12 -9.55,9.42 -17.11,22.25 -22.68,38.52l-11.94 -3.85c0.8,-59.91 9,-107.67 24.6,-143.28 15.44,-35.43 35.51,-60.85 60.18,-76.26 24.68,-15.41 50.15,-23.11 76.42,-23.11 39.8,0 75.46,13.87 106.98,41.6 31.36,27.9 59.62,65.82 84.77,113.75 24.99,47.93 46.89,102.02 65.67,162.28 18.63,60.43 34.71,123.34 48.24,188.73 13.53,65.56 24.28,130.01 32.24,193.35 4.78,-34.23 9.79,-76.17 15.05,-125.82 5.09,-49.64 9.63,-101.85 13.61,-156.63 3.98,-54.78 5.97,-106.99 5.97,-156.63 0,-35.95 -1.2,-68.73 -3.58,-98.35 -2.39,-29.44 -6.37,-54.86 -11.94,-76.26l0 -10.27c20.7,-24.82 41.63,-43.65 62.8,-56.49 21.02,-12.84 40.68,-19.26 58.98,-19.26 27.07,0 49.59,12.58 67.58,37.74 17.83,25.34 26.75,61.11 26.75,107.33 0,34.23 -4.38,75.92 -13.13,125.05 -8.76,49.3 -19.11,101.76 -31.05,157.4 -11.94,55.63 -22.45,110.15 -31.52,163.56 -9.23,53.58 -14.25,101.76 -15.04,144.56 0,11.98 0.8,24.82 2.39,38.52 1.59,13.69 9.95,20.54 25.07,20.54 0.8,3.42 1.2,5.99 1.2,7.7 0,1.71 0,3.42 0,5.13 -0.8,32.52 -13.13,61.37 -37.01,86.53 -23.88,25.33 -55.72,38 -95.52,38 -31.05,0 -57.31,-8.56 -78.81,-25.68 -21.49,-17.12 -39.4,-40.06 -53.73,-68.82 -14.33,-28.59 -26.43,-61.11 -36.3,-97.57 -10.03,-36.29 -19.42,-73.69 -28.18,-112.21 -15.92,-66.76 -32.4,-130.27 -49.43,-190.52 -17.19,-60.43 -40.12,-115.89 -68.78,-166.39 1.59,34.23 0.4,71.64 -3.58,112.21 -3.98,40.74 -8.12,81.82 -12.42,123.25 -4.46,41.6 -6.69,81.65 -6.69,120.17 0,34.24 2.78,65.65 8.36,94.23 5.57,28.76 15.52,54.27 29.85,76.52 0,41.94 -12.34,74.89 -37.01,98.85 -24.68,23.97 -51.74,35.95 -81.19,35.95zm932.54 -691.99c-31.84,0 -57.87,-10.53 -78.09,-31.58 -20.38,-20.88 -30.57,-47.16 -30.57,-78.83 0,-34.23 11.94,-63.76 35.82,-88.58 23.88,-24.82 52.94,-37.23 87.16,-37.23 31.84,0 57.95,10.7 78.33,32.1 20.22,21.4 30.33,47.93 30.33,79.6 0,34.23 -11.94,63.51 -35.82,87.81 -23.88,24.48 -52.93,36.72 -87.16,36.72zm-83.58 691.99c-31.04,0 -58.91,-11.81 -83.58,-35.43 -24.68,-23.45 -37.01,-61.28 -37.01,-113.49 0,-29.96 3.82,-58.03 11.46,-84.22 7.48,-26.02 16.24,-51.44 26.27,-76.26 9.87,-24.82 18.63,-49.04 26.27,-72.66 7.48,-23.45 11.22,-46.73 11.22,-69.84 0,-20.54 -3.18,-35.35 -9.55,-44.42 -6.36,-8.9 -13.93,-13.35 -22.68,-13.35 -13.53,0 -26.67,9.41 -39.4,28.24l-8.36 -5.13c3.18,-34.24 13.37,-63.6 30.57,-88.07 17.04,-24.31 38.13,-43.31 63.28,-57 25,-13.69 49.83,-20.54 74.51,-20.54 30.25,0 56.52,10.44 78.8,31.33 22.29,21.06 33.43,55.12 33.43,102.19 0,28.24 -3.74,57.94 -11.22,89.1 -7.64,31.33 -16.4,62.4 -26.27,93.21 -10.03,30.81 -18.79,59.48 -26.27,86.02 -7.64,26.53 -11.46,49.21 -11.46,68.04 0,16.26 3.03,27.82 9.07,34.66 5.89,6.85 12.42,10.27 19.58,10.27 7.17,0 14.17,-2.4 21.02,-7.19 6.69,-4.62 11.62,-9.93 14.81,-15.92l8.36 2.57c0,31.67 -7.72,59.23 -23.16,82.68 -15.6,23.62 -34.95,42.03 -58.03,55.21 -23.08,13.35 -46.96,20.03 -71.64,20.03zm537.31 251.64c-39.01,0 -71.24,-12.41 -96.72,-37.23 -25.47,-24.82 -38.21,-59.91 -38.21,-105.27 0,-48.79 15.92,-106.13 47.76,-172.04 -5.57,1.71 -11.15,3 -16.72,3.85 -5.57,0.86 -11.14,1.28 -16.72,1.28 -46.17,0 -85.01,-21.65 -116.54,-64.96 -31.36,-43.14 -47.04,-103.22 -47.04,-180.25 0,-69.33 12.5,-130.53 37.49,-183.59 25.15,-53.07 57.23,-94.58 96.24,-124.54 39.01,-29.96 79.6,-44.94 121.79,-44.94 29.45,0 56.12,7.87 80,23.62 23.88,15.92 43.38,41.43 58.51,76.52 0.8,-8.56 1.2,-16.26 1.2,-23.11 0,-6.85 0,-13.27 0,-19.26 0,-14.55 10.35,-26.53 31.04,-35.95 20.7,-9.42 43.78,-14.12 69.26,-14.12 23.08,0 44.58,4.71 64.48,14.12 19.9,9.42 33.03,25.25 39.4,47.5l2.39 7.71c-7.17,6.84 -13.37,29.1 -18.63,66.76 -5.1,37.66 -11.23,89.87 -18.39,156.63 -4.78,41.94 -10.74,89.62 -17.91,143.02 -7.17,53.58 -16.96,107.5 -29.37,161.77 -12.26,54.43 -28.34,104.59 -48.24,150.47 -19.9,45.7 -44.97,82.51 -75.22,110.41 -30.25,27.73 -66.86,41.6 -109.85,41.6zm-39.4 -457.05c23.09,0 48.72,-20.37 76.9,-61.11 28.34,-40.57 50.86,-98.94 67.58,-175.12 -14.33,-33.38 -28.89,-57.17 -43.7,-71.38 -14.65,-14.04 -29.53,-21.06 -44.66,-21.06 -19.9,0 -38.61,10.7 -56.12,32.1 -17.51,21.4 -31.68,48.53 -42.51,81.4 -10.67,33.04 -16,67.1 -16,102.19 0,35.95 5.57,63.76 16.72,83.45 11.14,19.68 25.07,29.53 41.79,29.53zm-14.33 309.41c27.06,0 54.68,-28.41 82.87,-85.25 28.34,-57 48.08,-137.29 59.22,-240.85 -60.5,88.16 -102.53,155.95 -126.09,203.36 -23.4,47.59 -35.1,81.23 -35.1,100.91 0,14.55 6.37,21.82 19.1,21.82zm513.43 -101.42c-32.64,0 -59.7,-11.13 -81.19,-33.38 -21.49,-22.25 -32.24,-49.64 -32.24,-82.17 0,-36.8 12.5,-68.3 37.49,-94.49 25.15,-26.02 56.04,-39.03 92.66,-39.03 32.64,0 59.86,11.13 81.67,33.38 21.97,22.25 32.96,49.64 32.96,82.17 0,36.8 -12.74,68.21 -38.21,94.23 -25.47,26.19 -56.52,39.29 -93.14,39.29z" data-fill-palette-color="primary"/>
   <path id="text-0_0" class="fil0" d="M7713.67 1481.75c-24.44,0 -52.06,-4.75 -82.88,-14.23 -30.96,-9.49 -63.2,-19.93 -96.73,-31.31 -33.67,-11.24 -67.14,-19.41 -100.4,-24.52 -23.08,23.36 -44.6,39.92 -64.55,49.7 -20.09,9.93 -37.95,14.89 -53.56,14.89 -19.68,0 -36.32,-6.2 -49.89,-18.61 -13.58,-12.41 -23.76,-28.32 -30.55,-47.74 -6.79,-19.27 -10.18,-39.12 -10.18,-59.56 0,-21.17 3.6,-41.24 10.79,-60.22 7.06,-18.97 18.06,-34.52 32.99,-46.64 14.93,-11.97 33.94,-17.95 57.02,-17.95 4.75,0 9.84,0.36 15.27,1.09 5.43,0.73 11.2,1.83 17.31,3.28 12.9,-42.33 24.3,-89.19 34.21,-140.57 9.77,-51.53 17.58,-102.11 23.42,-151.74 5.7,-49.63 8.55,-92.7 8.55,-129.19 0,-14.6 -0.68,-25.04 -2.04,-31.31 -1.36,-6.13 -3.73,-12.48 -7.13,-19.05l-1.02 -3.28c8.14,-23.36 21.72,-41.6 40.73,-54.74 19.01,-13.14 39.03,-19.7 60.08,-19.7 23.08,0 42.09,8.98 57.02,26.93 14.93,17.81 22.4,47.52 22.4,89.12 0,26.28 -2.85,58.9 -8.55,97.88 -5.84,39.12 -13.85,81.09 -24.03,125.9 -10.18,44.96 -21.38,89.34 -33.6,133.13 -12.22,43.79 -24.44,82.84 -36.65,117.15 29.87,7.3 59.94,15.69 90.21,25.18 30.14,9.49 59.8,14.23 88.99,14.23 22.4,0 43.99,-4.38 64.76,-13.14 20.64,-8.76 40.12,-24.82 58.45,-48.17 13.58,9.49 23.62,22.99 30.14,40.51 6.38,17.52 9.57,36.13 9.57,55.83 0,21.9 -4.21,43.21 -12.63,63.94 -8.55,20.87 -21.65,38.25 -39.3,52.11 -17.65,13.87 -40.39,20.8 -68.22,20.8zm323.8 -3.28c-21.72,0 -42.29,-5.33 -61.71,-15.99 -19.28,-10.51 -34.89,-27.08 -46.84,-49.7 -11.81,-22.63 -17.72,-51.46 -17.72,-86.49 0,-18.98 1.7,-43.79 5.09,-74.45 3.39,-30.65 7.94,-64.23 13.64,-100.72 5.84,-36.49 11.81,-72.99 17.92,-109.48 -13.58,0.73 -26.68,2.19 -39.3,4.38 -12.49,2.19 -24.84,4.75 -37.06,7.67l-2.04 -7.67c13.58,-17.52 27.83,-32.48 42.77,-44.89 14.93,-12.41 30.55,-22.62 46.84,-30.65 8.83,-48.17 16.29,-89.99 22.4,-125.47 6.11,-35.33 9.16,-56.27 9.16,-62.84 0,-12.41 8.96,-22.63 26.88,-30.65 18.06,-8.03 38.28,-12.04 60.69,-12.04 19.69,0 38.15,4.01 55.39,12.04 17.38,8.03 29.12,21.53 35.23,40.51 -4.07,4.38 -9.84,20.58 -17.31,48.61 -7.47,28.17 -15.27,62.33 -23.42,102.48 12.9,0.73 26.13,1.46 39.71,2.19 13.58,0.73 27.49,1.83 41.75,3.28 1.36,4.38 2.38,9.12 3.06,14.23 0.68,5.11 1.02,10.58 1.02,16.42 0,10.95 -1.56,22.77 -4.68,35.47 -2.99,12.85 -6.52,24.38 -10.59,34.6 -16.29,-1.46 -31.57,-3.14 -45.82,-5.03 -14.26,-1.75 -28.17,-2.99 -41.75,-3.72 -5.43,31.38 -10.38,62.77 -14.87,94.15 -4.34,31.38 -7.74,59.85 -10.18,85.4 -2.31,25.54 -3.46,45.62 -3.46,60.21 0,30.65 5.22,51.09 15.68,61.31 10.59,10.22 23.35,15.33 38.28,15.33 13.58,0 25.8,-2.92 36.66,-8.76 10.86,-5.84 18.67,-12.77 23.42,-20.8l10.18 3.28c-4.07,29.93 -14.93,55.98 -32.58,78.17 -17.65,22.34 -38.69,39.49 -63.13,51.46 -24.44,12.12 -48.87,18.18 -73.31,18.18zm360.45 0c-24.44,0 -47.38,-9.12 -68.83,-27.37 -21.31,-18.25 -38.62,-44.89 -51.93,-79.92 -13.17,-35.03 -19.75,-77.37 -19.75,-127 0,-51.09 6.79,-96.71 20.37,-136.85 13.58,-40.14 31.36,-74.3 53.35,-102.48 22.13,-28.03 46.23,-49.34 72.29,-63.94 26.2,-14.6 51.86,-21.9 76.98,-21.9 27.83,0 52.61,9.27 74.33,27.81 21.72,18.68 36.66,47.73 44.8,87.15 6.11,-36.49 11.34,-71.38 15.68,-104.66 4.48,-33.14 6.72,-62.48 6.72,-88.02 0,-33.58 -4.07,-58.03 -12.22,-73.35l0 -6.57c15.61,-18.98 32.72,-33.06 51.32,-42.26 18.73,-9.05 36.59,-13.58 53.56,-13.58 22.4,0 41.41,7.44 57.02,22.33 15.61,15.03 23.42,36.42 23.42,64.16 0,15.33 -2.38,37.95 -7.13,67.88 -4.75,29.93 -10.52,64.01 -17.31,102.26 -6.79,38.39 -13.78,77.81 -20.98,118.24 -7.06,40.58 -12.96,79.27 -17.72,116.05 -4.75,36.93 -7.13,68.9 -7.13,95.91 0,22.63 2.17,40.65 6.52,54.08 4.48,13.58 11.81,20.36 21.99,20.36 7.46,0 15.07,-2.77 22.81,-8.32 7.88,-5.4 13.17,-11.75 15.89,-19.05l7.13 5.47c0,24.09 -7.13,46.13 -21.38,66.13 -14.26,20.15 -32.24,36.42 -53.97,48.83 -21.72,12.41 -44.12,18.61 -67.2,18.61 -25.12,0 -45.01,-7.52 -59.67,-22.55 -14.53,-14.89 -24.85,-34.01 -30.96,-57.37 -6.11,-23.36 -9.5,-47.44 -10.18,-72.26 -21.05,52.55 -45.68,91.02 -73.92,115.39 -28.1,24.53 -56.07,36.79 -83.9,36.79zm68.22 -139.04c17.65,0 37.33,-17.15 59.06,-51.46 21.72,-34.3 40.73,-84.3 57.02,-149.99l6.11 -33.94c-10.86,-27.01 -22.6,-46.2 -35.23,-57.59 -12.49,-11.24 -24.5,-16.86 -36.04,-16.86 -16.97,0 -32.92,10 -47.86,30 -14.93,20.14 -27.02,45.69 -36.25,76.64 -9.09,31.1 -13.64,63.79 -13.64,98.1 0,32.85 4.41,58.54 13.24,77.08 8.83,18.69 20.03,28.03 33.6,28.03zm450.87 141.23c-27.83,0 -50.91,-9.49 -69.24,-28.46 -18.33,-18.98 -27.49,-42.33 -27.49,-70.07 0,-31.38 10.73,-58.25 32.18,-80.58 21.31,-22.19 47.58,-33.28 78.81,-33.28 27.83,0 51.11,9.49 69.85,28.46 18.6,18.98 27.9,42.33 27.9,70.07 0,31.38 -10.86,58.17 -32.59,80.36 -21.72,22.33 -48.19,33.5 -79.42,33.5z" data-fill-palette-color="primary"/>
   <path id="text-0_1" class="fil1" d="M120.5 1450.91c-31.68,0 -59.63,-15.68 -83.84,-47.03 -24.44,-31.09 -36.66,-89.16 -36.66,-174.19 0,-14.62 0.34,-27.64 1.02,-39.06 0.45,-11.16 0.68,-19.4 0.68,-24.71 4.53,-53.15 11.09,-119.32 19.69,-198.5 8.37,-78.92 18.22,-161.97 29.53,-249.13 11.31,-86.89 22.97,-170.87 34.96,-251.91 11.77,-81.05 22.74,-151.87 32.92,-212.46 10.18,-60.32 18.67,-101.77 25.46,-124.36 12.44,-39.86 34.85,-71.35 67.21,-94.47 32.13,-23.39 65.17,-35.08 99.11,-35.08 29.42,0 56.34,9.97 80.78,29.9 24.21,19.93 40.85,53.81 49.9,101.64 -6.79,26.57 -17.54,73.34 -32.24,140.31 -14.71,67.23 -30.55,149.34 -47.52,246.34 -16.97,96.99 -33.04,203.95 -48.2,320.87 -15.39,116.92 -27.61,239.16 -36.66,366.71 -1.13,22.59 -2.83,48.76 -5.09,78.52 -2.26,30.03 -3.96,60.32 -5.09,90.88 -13.58,17.27 -33.94,34.15 -61.1,50.62 -27.15,16.74 -55.44,25.11 -84.85,25.11zm702.6 7.97c-70.15,0 -128.41,-11.29 -174.8,-33.88 -46.39,-22.59 -80.9,-51.55 -103.52,-86.9 -22.63,-35.08 -33.94,-70.55 -33.94,-106.43 0,-50.49 19.23,-95.4 57.7,-134.73 38.47,-39.06 90.51,-58.59 156.13,-58.59 0,67.76 7.36,121.84 22.06,162.23 14.71,40.66 33.6,69.62 56.68,86.89 23.31,17.27 45.71,25.91 67.21,25.91 26.02,0 47.75,-9.03 65.17,-27.1 17.65,-17.8 26.47,-39.99 26.47,-66.57 0,-37.2 -16.41,-69.75 -49.22,-97.66 -32.81,-27.9 -75.24,-59.13 -127.28,-93.67 -26.02,-18.6 -54.31,-40.26 -84.86,-64.97 -30.55,-24.45 -56.57,-54.34 -78.07,-89.69 -21.5,-35.08 -32.24,-77.2 -32.24,-126.36 0,-51.82 12.67,-97.66 38.01,-137.52 25.57,-39.86 59.29,-73.48 101.15,-100.85 41.86,-27.11 87.12,-47.7 135.77,-61.78 48.65,-13.82 96.17,-20.73 142.56,-20.73 87.12,0 152.74,20.6 196.87,61.78 44.12,41.19 66.18,85.04 66.18,131.54 0,39.86 -16.97,75.73 -50.91,107.62 -33.94,31.89 -85.99,47.83 -156.13,47.83 1.13,-67.76 -10.75,-117.32 -35.64,-148.68 -24.89,-31.09 -51.48,-46.64 -79.76,-46.64 -20.37,0 -37.34,7.31 -50.91,21.92 -13.58,14.62 -20.37,35.87 -20.37,63.78 0,31.89 8.71,59.39 26.13,82.51 17.65,23.39 39.71,43.98 66.19,61.78 26.7,18.07 54.19,35.08 82.48,51.02 38.47,21.26 74.67,43.85 108.62,67.76 33.94,23.92 61.66,51.15 83.16,81.71 21.49,30.56 32.25,67.76 32.25,111.61 0,59.79 -20.7,115.19 -62.12,166.22 -41.18,51.29 -96.28,92.47 -165.3,123.57 -69.02,31.36 -144.25,47.03 -225.72,47.03zm997.9 -9.97c-45.26,0 -86.55,-11.69 -123.89,-35.08 -37.34,-23.12 -67.89,-57.27 -91.64,-102.44 -1.13,25.24 -9.05,48.5 -23.76,69.75 -14.71,21.26 -42.43,31.89 -83.16,31.89 -45.26,0 -78.63,-14.62 -100.13,-43.85 -21.5,-29.23 -32.24,-67.76 -32.24,-115.59 0,-29.23 3.39,-71.48 10.18,-126.75 6.79,-55.01 14.93,-117.06 24.44,-186.15 9.73,-69.09 19.35,-140.84 28.85,-215.24 9.73,-74.4 17.99,-146.82 24.78,-217.24 6.79,-70.42 10.18,-133.53 10.18,-189.34 0,-37.2 -1.7,-69.75 -5.09,-97.66 -3.39,-27.9 -9.62,-49.82 -18.67,-65.77l0 -11.96c26.02,-33.22 53.18,-58.2 81.46,-74.94 28.29,-16.48 55.44,-24.71 81.46,-24.71 38.47,0 71.28,17.94 98.43,53.81 27.15,35.87 40.73,93.01 40.73,171.4 0,38.53 -3.4,92.61 -10.18,162.23 -6.79,69.89 -15.28,139.38 -25.46,208.47 40.73,-67.76 83.95,-119.58 129.66,-155.46 45.93,-35.87 90.4,-53.81 133.39,-53.81 57.7,0 106.92,32.15 147.65,96.46 40.73,64.57 61.1,161.96 61.1,292.18 0,77.06 -7.69,153.06 -23.08,228 -15.39,75.2 -38.24,142.96 -68.56,203.29 -30.55,60.59 -68.22,108.82 -113.03,144.69 -44.58,35.87 -95.72,53.81 -153.42,53.81zm-84.86 -201.29c36.21,0 66.98,-18.6 92.32,-55.8 25.57,-37.2 44.81,-84.77 57.7,-142.7 13.13,-57.66 19.69,-117.06 19.69,-178.17 0,-39.86 -2.83,-78.13 -8.49,-114.8 -5.66,-36.41 -14.14,-66.3 -25.45,-89.69 -11.31,-23.12 -26.02,-34.68 -44.13,-34.68 -31.68,0 -67.66,43.45 -107.94,130.34 -40.05,87.16 -71.39,210.46 -94.02,369.9 20.37,77.06 57.14,115.59 110.31,115.59zm1153.69 203.29c-39.6,0 -74.11,-15.28 -103.52,-45.84 -29.42,-30.56 -44.12,-80.39 -44.12,-149.47 0,-6.64 0,-13.29 0,-19.93 0,-6.64 0.56,-13.29 1.69,-19.93 -33.94,79.72 -72.07,138.45 -114.38,176.18 -42.54,38 -85.31,57 -128.3,57 -39.6,0 -76.94,-16.34 -112.01,-49.03 -35.08,-32.42 -63.36,-80.52 -84.86,-144.29 -21.49,-63.78 -32.24,-140.84 -32.24,-231.19 0,-93.01 11.09,-176.05 33.26,-249.13 21.95,-73.08 51.03,-134.86 87.23,-185.35 36.21,-50.49 75.81,-88.75 118.8,-114.8 42.99,-25.78 84.85,-38.67 125.58,-38.67 45.26,0 85.99,16.21 122.19,48.63 36.21,32.69 61.1,84.24 74.68,154.66 3.39,-22.59 5.99,-43.18 7.81,-61.79 1.58,-18.6 2.38,-31.22 2.38,-37.87 1.13,-35.87 16.74,-62.45 46.84,-79.72 29.87,-17.27 62.91,-25.91 99.11,-25.91 31.68,0 61.66,7.31 89.94,21.92 28.29,14.62 47.52,39.2 57.7,73.74l3.39 11.96c-13.58,35.87 -27.15,79.06 -40.73,129.55 -13.58,50.49 -26.02,103.24 -37.34,158.24 -11.31,55.27 -20.37,109.08 -27.15,161.43 -6.79,52.62 -10.18,98.85 -10.18,138.71 0,43.85 3.96,74.01 11.88,90.48 7.92,16.74 17.54,25.11 28.85,25.11 19.24,0 36.77,-15.94 52.61,-47.83l13.58 7.97c0,45.18 -12.45,86.36 -37.34,123.57 -24.89,37.2 -56,66.7 -93.34,88.49 -37.34,22.06 -74.67,33.08 -112.01,33.08zm-276.63 -253.11c29.42,0 62,-30.96 97.75,-92.87 35.53,-61.65 66.3,-150.27 92.32,-265.87 2.26,-11.96 4.52,-23.65 6.79,-35.08 2.26,-11.16 3.96,-22.06 5.09,-32.69 -18.1,-49.16 -37,-84.11 -56.68,-104.83 -19.91,-20.46 -39.49,-30.69 -58.72,-30.69 -28.29,0 -54.53,17.54 -78.75,52.62 -24.44,35.34 -44.24,79.59 -59.4,132.73 -15.39,53.15 -23.08,106.29 -23.08,159.44 0,73.08 7.13,127.55 21.38,163.43 14.03,35.87 31.79,53.81 53.29,53.81zm909.65 -823.11c-45.25,0 -82.25,-16.34 -110.99,-49.03 -28.96,-32.42 -43.45,-73.21 -43.45,-122.37 0,-53.15 16.97,-98.99 50.91,-137.52 33.94,-38.53 75.24,-57.8 123.89,-57.8 45.25,0 82.36,16.61 111.33,49.83 28.74,33.22 43.11,74.4 43.11,123.57 0,53.15 -16.97,98.59 -50.91,136.32 -33.94,38 -75.24,57 -123.89,57zm-330.93 1464.86c-49.78,0 -92.21,-10.9 -127.28,-32.69 -35.07,-22.06 -61.32,-49.69 -78.75,-82.91 -17.65,-33.22 -26.47,-67.76 -26.47,-103.64 0,-53.15 19.57,-101.25 58.72,-144.29 38.92,-43.32 99.11,-64.97 180.57,-64.97 -15.84,33.22 -27.16,63.11 -33.94,89.69 -6.79,26.57 -10.18,51.15 -10.18,73.74 0,33.22 5.65,58.46 16.97,75.74 11.32,17.27 24.33,25.91 39.04,25.91 24.89,0 40.17,-24.85 45.82,-74.54 5.66,-49.96 8.49,-116.13 8.49,-198.51l0 -105.63c0,-140.84 3.96,-279.42 11.88,-415.74 7.92,-136.05 29.42,-267.2 64.49,-393.42 37.34,-29.23 82.59,-43.85 135.77,-43.85 32.81,0 63.92,6.91 93.34,20.73 29.42,14.08 49.78,35.74 61.1,64.97 -31.68,112.94 -56.23,227.87 -73.66,344.79 -17.65,116.92 -34.96,245.81 -51.93,386.64 -9.05,73.08 -19.46,144.16 -31.23,213.25 -11.99,69.09 -28.4,131.27 -49.22,186.55 -21.05,55.01 -49.89,98.45 -86.55,130.34 -36.88,31.89 -85.87,47.83 -146.97,47.83zm1128.58 -388.64c-39.6,0 -74.11,-15.28 -103.52,-45.84 -29.42,-30.56 -44.12,-80.39 -44.12,-149.47 0,-6.64 0,-13.29 0,-19.93 0,-6.64 0.57,-13.29 1.7,-19.93 -33.94,79.72 -72.18,138.45 -114.73,176.18 -42.31,38 -84.97,57 -127.96,57 -39.6,0 -76.94,-16.34 -112.01,-49.03 -35.07,-32.42 -63.36,-80.52 -84.85,-144.29 -21.49,-63.78 -32.24,-140.84 -32.24,-231.19 0,-93.01 10.97,-176.05 32.92,-249.13 22.18,-73.08 51.37,-134.86 87.57,-185.35 36.21,-50.49 75.8,-88.75 118.8,-114.8 42.99,-25.78 84.85,-38.67 125.59,-38.67 45.25,0 85.99,16.21 122.19,48.63 36.2,32.69 61.1,84.24 74.67,154.66 3.39,-22.59 5.89,-43.18 7.47,-61.79 1.81,-18.6 2.71,-31.22 2.71,-37.87 1.13,-35.87 16.63,-62.45 46.5,-79.72 30.09,-17.27 63.24,-25.91 99.45,-25.91 31.68,0 61.66,7.31 89.95,21.92 28.28,14.62 47.52,39.2 57.7,73.74l3.39 11.96c-13.58,35.87 -27.15,79.06 -40.73,129.55 -13.58,50.49 -26.02,103.24 -37.34,158.24 -11.31,55.27 -20.37,109.08 -27.15,161.43 -6.79,52.62 -10.18,98.85 -10.18,138.71 0,43.85 3.96,74.01 11.88,90.48 7.92,16.74 17.54,25.11 28.85,25.11 19.23,0 36.77,-15.94 52.61,-47.83l13.58 7.97c0,45.18 -12.44,86.36 -37.34,123.57 -24.89,37.2 -56.01,66.7 -93.34,88.49 -37.34,22.06 -74.67,33.08 -112.01,33.08zm-276.63 -253.11c29.42,0 61.89,-30.96 97.41,-92.87 35.75,-61.65 66.64,-150.27 92.66,-265.87 2.26,-11.96 4.53,-23.65 6.79,-35.08 2.26,-11.16 3.96,-22.06 5.09,-32.69 -18.1,-49.16 -37.11,-84.11 -57.03,-104.83 -19.69,-20.46 -39.14,-30.69 -58.38,-30.69 -28.28,0 -54.64,17.54 -79.08,52.62 -24.21,35.34 -44.01,79.59 -59.4,132.73 -15.16,53.15 -22.74,106.29 -22.74,159.44 0,73.08 7.02,127.55 21.04,163.43 14.26,35.87 32.13,53.81 53.63,53.81z" data-fill-palette-color="primary"/>
  </g>
 </g>
</svg>
